# xmcd
# Track frame offsets:
# 150
# 13495
# 25564
# 36659
# 50078
# 60648
# 72118
# 84264
# 95808
# 106378
# 121298
# 132317
# 145436
# 161480
# 174149
#
# Disc length: 2566 seconds
# Revision: 0
# Processed by: cddbd v1.5.2PL0 Copyright (c) Steve Scherf et al.
# Submitted via: VisiTrax 2.11.2.271 - For more info visit www.synapsa.com
#
DISCID=d10a040f
DTITLE=Various Artist - Classic Country 1970-1974 Disc 2
DYEAR=1999
DGENRE=Country
TTITLE0=Billy Swan - I Can Help
TTITLE1=Marie Osmond - Paper Roses
TTITLE2=Conway Twitty - Hello Darlin'
TTITLE3=George Jones and Tammy Wynette - We're Gonna Hold On
TTITLE4=Sonny James - Empty Arms
TTITLE5=Donna Fargo - The Happiest Girl In The Whole U.S.A.
TTITLE6=Charlie Rich - The Most Beautiful Girl
TTITLE7=Sammi Smith - Help Me Make It Through The Night
TTITLE8=Jerry Reed - When You're Hot, You're Hot
TTITLE9=Jeanne Pruett - Satin Sheets
TTITLE10=Loretta Lynn and Conway Twitty - Lead Me On
TTITLE11=Tanya Tucker - Delta Dawn
TTITLE12=Marty Robbins - My Woman, My Woman, My Wife
TTITLE13=Lynn Anderson - Rose Garden
TTITLE14=Johnny Cash - Sunday Morning Coming Down
EXTD=ID3G: 2
EXTT0=
EXTT1=
EXTT2=
EXTT3=
EXTT4=
EXTT5=
EXTT6=
EXTT7=
EXTT8=
EXTT9=
EXTT10=
EXTT11=
EXTT12=
EXTT13=
EXTT14=
PLAYORDER=
